<?xml version="1.0" encoding="UTF-8"?>
<!DOCTYPE svg PUBLIC "-//W3C//DTD SVG 1.1//EN" "http://www.w3.org/Graphics/SVG/1.1/DTD/svg11.dtd">
<svg xmlns="http://www.w3.org/2000/svg" version="1.1" width="512px" height="512px"
    style="shape-rendering:geometricPrecision; text-rendering:geometricPrecision; image-rendering:optimizeQuality; fill-rule:evenodd; clip-rule:evenodd"
    xmlns:xlink="http://www.w3.org/1999/xlink">
    <g>
        <path style="opacity:0.961" fill="#000000"
            d="M 100.5,84.5 C 107.799,83.4886 114.466,84.9886 120.5,89C 165.347,134.014 210.347,178.847 255.5,223.5C 300.653,178.847 345.653,134.014 390.5,89C 400.977,82.664 411.143,83.164 421,90.5C 427.922,100.302 428.256,110.302 422,120.5C 376.986,165.347 332.153,210.347 287.5,255.5C 332.153,300.653 376.986,345.653 422,390.5C 428.336,400.977 427.836,411.143 420.5,421C 410.698,427.922 400.698,428.256 390.5,422C 345.653,376.986 300.653,332.153 255.5,287.5C 210.347,332.153 165.347,376.986 120.5,422C 110.007,428.38 99.8406,427.88 90,420.5C 83.1248,410.682 82.7914,400.682 89,390.5C 134.014,345.653 178.847,300.653 223.5,255.5C 178.847,210.347 134.014,165.347 89,120.5C 82.7914,110.318 83.1248,100.318 90,90.5C 93.1013,87.6482 96.6013,85.6482 100.5,84.5 Z" />
    </g>
</svg>