<?xml version="1.0" standalone="no"?>
<!DOCTYPE svg PUBLIC "-//W3C//DTD SVG 20010904//EN"
 "http://www.w3.org/TR/2001/REC-SVG-20010904/DTD/svg10.dtd">
<svg version="1.0" xmlns="http://www.w3.org/2000/svg"
 width="324.000000pt" height="248.000000pt" viewBox="0 0 324.000000 248.000000"
 preserveAspectRatio="xMidYMid meet">

<g transform="translate(0.000000,248.000000) scale(0.100000,-0.100000)"
fill="#000000" stroke="none">
<path d="M648 2053 c12 -2 32 -2 45 0 12 2 2 4 -23 4 -25 0 -35 -2 -22 -4z"/>
<path d="M460 2034 c-90 -19 -180 -54 -180 -69 0 -8 -8 -11 -18 -9 -9 3 -38
-10 -65 -29 l-47 -34 32 -44 c41 -56 63 -114 82 -218 22 -113 21 -141 -3 -141
-15 0 -24 -15 -41 -65 l-22 -65 22 -64 c20 -62 37 -81 62 -71 10 4 12 -28 6
-150 -10 -245 -52 -471 -103 -563 -14 -24 -25 -46 -25 -47 0 -10 197 -90 271
-110 170 -45 389 -56 389 -19 0 8 4 13 9 10 5 -3 11 0 14 7 3 8 -4 19 -14 25
-10 7 -19 18 -19 25 0 6 7 3 15 -7 8 -11 15 -14 15 -8 0 14 -36 52 -49 52 -5
0 -11 11 -14 25 -2 14 -2 23 1 20 3 -2 10 -1 16 4 6 4 29 11 51 14 74 12 149
38 134 47 -7 5 -16 5 -19 1 -9 -14 -50 -23 -50 -12 0 6 -7 11 -15 11 -8 0 -15
9 -15 20 0 14 -7 20 -21 20 -11 0 -17 -4 -14 -10 3 -5 4 -10 1 -10 -3 0 -10 9
-16 20 -8 16 -7 23 10 37 24 21 26 33 5 33 -25 0 -73 77 -96 157 -13 42 -24
72 -26 67 -5 -16 46 -165 67 -194 l20 -28 -29 3 c-15 1 -33 5 -40 10 -8 4 -16
3 -20 -4 -5 -7 -31 -8 -91 -1 -110 13 -150 26 -150 51 0 12 4 17 11 13 8 -4 9
1 4 15 -4 12 -2 27 3 34 5 7 13 34 17 61 11 81 7 78 104 71 l86 -7 -35 24
c-19 14 -34 32 -34 41 1 9 -2 14 -7 11 -5 -3 -9 1 -9 9 0 8 -6 20 -14 27 -8 6
-17 19 -19 28 -2 9 -3 7 -2 -6 3 -30 -11 -38 -19 -9 -4 16 1 28 21 44 30 24
27 33 -18 48 -28 10 -29 12 -14 30 15 20 15 20 9 0 -5 -16 -4 -17 4 -6 8 11 6
23 -4 42 -18 36 -18 40 2 32 10 -4 22 1 30 11 11 16 41 19 236 26 545 22 1986
-6 2007 -38 3 -5 37 -12 74 -15 l68 -5 21 32 c19 29 24 32 48 23 37 -14 93 -1
119 27 13 13 25 42 28 64 6 46 -14 70 -84 104 -53 25 -87 17 -79 -17 10 -39
-11 -38 -38 2 -15 21 -26 43 -26 49 0 20 -24 31 -55 23 -25 -5 -26 -7 -7 -8
13 0 20 -5 17 -11 -3 -5 0 -10 8 -10 17 0 50 -35 72 -78 19 -39 13 -52 -17
-33 -11 7 -23 9 -27 4 -11 -16 -31 -13 -31 4 0 14 -2 15 -9 4 -5 -7 -14 -10
-20 -7 -6 4 -15 -2 -19 -15 -13 -35 -25 -6 -30 78 -3 52 -8 71 -16 64 -49 -40
-1567 -64 -2118 -34 l-117 6 -3 -47 c-3 -49 -19 -62 -29 -24 -5 20 -7 21 -14
6 -4 -10 -16 -18 -26 -18 -10 0 -19 -4 -19 -10 0 -14 -16 -12 -33 5 -8 8 -17
11 -20 8 -4 -3 -28 0 -54 7 -79 20 -135 23 -144 8 -7 -10 -9 -9 -9 4 0 36 12
48 49 48 90 1 161 36 161 79 0 11 6 22 13 24 9 4 8 8 -3 17 -12 9 -8 11 19 7
l35 -4 -23 18 c-26 21 -22 53 10 69 10 6 19 15 19 21 0 15 42 69 54 69 5 0 -2
-12 -16 -27 -25 -27 -43 -93 -26 -93 4 0 8 8 8 18 0 31 40 83 75 98 19 8 56
15 82 16 l48 1 -55 7 c-30 4 -48 7 -39 8 9 1 22 9 29 17 11 13 10 18 -6 31
-18 15 -18 15 9 9 25 -5 27 -4 15 14 -6 11 -15 18 -19 15 -4 -2 -14 -1 -23 2
-13 5 -14 9 -5 20 9 11 7 14 -9 14 -11 0 -23 6 -26 13 -5 10 -7 10 -12 0 -3
-7 -10 -13 -15 -13 -4 0 -6 6 -4 13 2 6 7 31 9 55 3 23 7 46 10 51 15 24 -57
26 -154 5z m122 -256 c-7 -7 -12 -8 -12 -2 0 14 12 26 19 19 2 -3 -1 -11 -7
-17z m53 2 c-3 -5 -12 -10 -18 -10 -7 0 -6 4 3 10 19 12 23 12 15 0z m377
-353 c-12 -6 -27 -5 -38 1 -15 8 -11 10 20 9 32 -1 35 -3 18 -10z m1352 4 c3
-4 -7 -8 -22 -9 -613 -9 -1285 -13 -1280 -7 4 4 271 9 594 11 323 2 590 6 592
9 9 9 111 5 116 -4z m771 -26 c14 -13 25 -32 25 -42 0 -25 -28 -63 -45 -63 -8
0 -18 -7 -23 -16 -7 -13 -13 -14 -31 -4 -21 11 -21 13 -7 35 18 27 21 71 6 80
-6 3 -7 -1 -4 -12 5 -17 5 -17 -6 0 -9 14 -9 22 0 33 19 22 58 17 85 -11z
m-2755 -27 c0 -13 -23 -5 -28 10 -2 7 2 10 12 6 9 -3 16 -11 16 -16z m260
-443 c7 -9 8 -15 2 -15 -5 0 -12 7 -16 15 -3 8 -4 15 -2 15 2 0 9 -7 16 -15z"/>
<path d="M740 1799 c0 -5 5 -7 10 -4 6 3 10 8 10 11 0 2 -4 4 -10 4 -5 0 -10
-5 -10 -11z"/>
<path d="M532 1605 c0 -16 2 -22 5 -12 2 9 2 23 0 30 -3 6 -5 -1 -5 -18z"/>
<path d="M555 1480 c3 -5 8 -10 11 -10 2 0 4 5 4 10 0 6 -5 10 -11 10 -5 0 -7
-4 -4 -10z"/>
<path d="M1129 1163 l-24 -28 28 24 c15 14 27 26 27 28 0 8 -8 1 -31 -24z"/>
<path d="M2014 1168 l-19 -23 23 19 c21 18 27 26 19 26 -2 0 -12 -10 -23 -22z"/>
<path d="M1470 1137 l-34 -42 42 40 c23 21 42 40 42 42 0 12 -20 -5 -50 -40z"/>
<path d="M2239 1163 c-13 -16 -12 -17 4 -4 16 13 21 21 13 21 -2 0 -10 -8 -17
-17z"/>
<path d="M2352 1140 c-43 -52 -36 -51 12 0 20 22 33 40 29 40 -4 0 -23 -18
-41 -40z"/>
<path d="M2556 1145 c-15 -19 -25 -35 -23 -35 2 0 17 16 34 35 17 19 28 35 23
35 -4 0 -20 -16 -34 -35z"/>
<path d="M2712 1140 c0 -19 2 -27 5 -17 2 9 2 25 0 35 -3 9 -5 1 -5 -18z"/>
<path d="M1719 1143 c-13 -16 -12 -17 4 -4 9 7 17 15 17 17 0 8 -8 3 -21 -13z"/>
<path d="M1329 1123 l-24 -28 28 24 c15 14 27 26 27 28 0 8 -8 1 -31 -24z"/>
<path d="M1969 1133 c-13 -16 -12 -17 4 -4 16 13 21 21 13 21 -2 0 -10 -8 -17
-17z"/>
<path d="M2209 1123 c-13 -16 -12 -17 4 -4 16 13 21 21 13 21 -2 0 -10 -8 -17
-17z"/>
<path d="M1036 1098 c-3 -7 -7 -74 -10 -148 -4 -74 -8 -143 -9 -154 -2 -14 9
-21 48 -31 27 -7 54 -11 59 -8 5 4 6 1 2 -5 -3 -6 -2 -14 4 -17 13 -8 42 14
34 26 -3 5 0 18 6 29 9 16 8 19 -5 13 -11 -4 -18 1 -22 15 -5 20 -7 21 -39 7
-19 -8 -34 -10 -34 -4 0 5 5 9 10 9 6 0 10 4 10 8 0 5 -13 7 -30 4 -19 -3 -30
0 -30 7 0 7 5 9 11 5 6 -3 15 0 20 7 13 21 11 32 -6 25 -13 -4 -15 8 -15 76 0
74 1 79 17 67 14 -13 14 -11 -1 19 -10 19 -15 40 -12 48 3 8 3 14 0 14 -2 0
-6 -6 -8 -12z m0 -304 c-4 -9 -9 -15 -11 -12 -3 3 -3 13 1 22 4 9 9 15 11 12
3 -3 3 -13 -1 -22z"/>
<path d="M1915 1098 c-6 -20 -12 -289 -6 -283 5 6 18 295 13 295 -1 0 -4 -6
-7 -12z"/>
<path d="M624 1083 c2 -10 -2 -22 -8 -26 -7 -6 -6 -7 3 -5 16 5 24 35 11 43
-5 3 -7 -3 -6 -12z"/>
<path d="M1158 1065 l32 -39 -28 -31 -27 -30 32 29 32 29 -19 27 c-10 15 -27
33 -37 41 -10 8 -3 -4 15 -26z"/>
<path d="M1642 1070 c0 -19 2 -27 5 -17 2 9 2 25 0 35 -3 9 -5 1 -5 -18z"/>
<path d="M2039 1062 l30 -39 -22 -24 -22 -23 27 23 27 24 -30 38 c-17 22 -33
39 -36 39 -2 0 9 -17 26 -38z"/>
<path d="M2718 1069 c-5 -30 13 -50 44 -48 7 0 3 4 -9 9 -17 7 -23 17 -22 37
l2 28 4 -26 c3 -21 11 -28 34 -31 25 -4 29 -1 29 19 0 16 -8 27 -26 33 -41 16
-51 12 -56 -21z"/>
<path d="M1334 965 c0 -71 1 -99 3 -62 2 37 2 96 0 130 -2 34 -3 4 -3 -68z"/>
<path d="M1495 1066 c10 -14 19 -26 22 -26 7 0 -17 39 -28 46 -6 3 -3 -5 6
-20z"/>
<path d="M2212 973 l-2 -121 -33 -29 c-18 -15 -28 -25 -23 -20 14 10 28 9 21
-3 -3 -5 -1 -10 4 -10 6 0 11 5 11 10 0 6 8 10 18 11 15 0 15 1 -2 8 -17 6
-17 8 -4 14 9 3 23 -2 34 -14 21 -23 34 -25 34 -4 0 8 -4 15 -10 15 -5 0 -10
9 -10 21 0 21 0 21 20 -2 19 -23 19 -23 20 -4 0 27 -18 45 -38 38 -10 -4 -13
-2 -8 6 4 6 15 10 24 9 12 -2 17 5 17 24 l1 27 -24 -24 c-13 -13 -25 -32 -27
-42 -2 -10 -5 -22 -6 -28 -2 -5 -6 46 -9 115 l-6 125 -2 -122z"/>
<path d="M2375 1068 c13 -20 16 -50 14 -138 -1 -61 1 -113 4 -116 3 -4 7 46 9
110 3 110 2 119 -20 144 l-23 27 16 -27z"/>
<path d="M2550 945 c-5 -149 -5 -150 20 -180 l25 -30 -25 21 c-14 12 -32 25
-40 29 -8 4 1 -6 20 -22 53 -46 102 -20 89 47 -4 22 -7 27 -8 13 0 -13 -5 -23
-9 -23 -4 0 -6 16 -4 36 3 25 7 32 13 23 6 -9 9 2 9 31 0 33 -3 41 -10 30 -7
-12 -10 -8 -10 15 0 20 3 26 9 17 7 -11 9 -11 14 2 4 10 1 16 -8 16 -23 0 -29
1 -46 10 -12 7 -15 3 -16 -23 -1 -91 -8 -78 -13 23 l-5 115 -5 -150z m24 -119
c-3 -8 2 -16 13 -19 14 -4 14 -5 -4 -6 -18 -1 -23 4 -23 25 0 14 4 23 10 19 5
-3 7 -12 4 -19z"/>
<path d="M2590 1086 c0 -2 7 -7 16 -10 8 -3 12 -2 9 4 -6 10 -25 14 -25 6z"/>
<path d="M2820 1070 c8 -5 20 -10 25 -10 6 0 3 5 -5 10 -8 5 -19 10 -25 10 -5
0 -3 -5 5 -10z"/>
<path d="M1820 1039 c0 -11 4 -18 10 -14 5 3 7 12 3 20 -7 21 -13 19 -13 -6z"/>
<path d="M2260 1056 c0 -2 7 -9 15 -16 13 -11 14 -10 9 4 -5 14 -24 23 -24 12z"/>
<path d="M1514 925 c0 -60 1 -84 3 -52 2 32 2 81 0 110 -2 29 -3 3 -3 -58z"/>
<path d="M1653 945 c0 -44 2 -61 4 -37 2 23 2 59 0 80 -2 20 -4 1 -4 -43z"/>
<path d="M2665 990 c3 -5 8 -10 11 -10 2 0 4 5 4 10 0 6 -5 10 -11 10 -5 0 -7
-4 -4 -10z"/>
<path d="M1097 945 c-14 -10 -15 -14 -4 -23 10 -8 16 -6 25 8 14 24 3 33 -21
15z"/>
<path d="M2733 937 c-3 -4 -11 -6 -19 -3 -10 4 -11 0 -4 -20 6 -14 10 -59 10
-100 0 -59 3 -76 16 -81 10 -4 12 -8 5 -12 -6 -4 30 -15 80 -25 51 -9 115 -26
143 -36 64 -25 83 -11 30 23 -69 43 -124 68 -136 61 -6 -4 -8 -3 -4 4 3 6 -6
13 -25 17 l-31 7 7 83 7 83 -37 4 c-20 2 -39 0 -42 -5z"/>
<path d="M707 920 c3 -11 10 -20 16 -20 6 0 19 -8 31 -17 11 -10 6 -1 -10 19
-32 42 -45 48 -37 18z"/>
<path d="M1055 920 c-8 -13 -1 -24 14 -19 6 3 7 10 2 18 -6 10 -10 10 -16 1z"/>
<path d="M2427 859 c-17 -10 -23 -40 -11 -52 12 -11 44 13 44 33 0 24 -11 31
-33 19z m12 -38 c-15 -5 -22 6 -14 19 6 9 10 9 16 -1 5 -8 4 -15 -2 -18z"/>
<path d="M1244 834 c-18 -14 -18 -15 4 -4 12 6 22 13 22 15 0 8 -5 6 -26 -11z"/>
<path d="M1642 830 c0 -14 2 -19 5 -12 2 6 2 18 0 25 -3 6 -5 1 -5 -13z"/>
<path d="M1931 838 c-1 -28 -2 -32 -12 -50 -8 -14 -6 -18 8 -18 10 0 36 -9 57
-21 27 -14 42 -17 49 -10 6 6 8 11 4 11 -4 0 0 14 9 31 9 18 11 28 4 24 -7 -4
-18 2 -26 14 -9 12 -20 19 -25 15 -5 -3 -17 0 -25 7 -13 10 -17 10 -24 0 -6
-11 -9 -11 -13 0 -4 10 -6 9 -6 -3z"/>
<path d="M2120 840 c-8 -5 -12 -11 -9 -14 3 -3 14 1 25 9 21 16 8 20 -16 5z"/>
<path d="M1285 814 l-30 -26 33 22 c17 12 32 23 32 26 0 7 -4 5 -35 -22z"/>
<path d="M930 821 c0 -5 5 -13 10 -16 6 -3 10 -2 10 4 0 5 -4 13 -10 16 -5 3
-10 2 -10 -4z"/>
<path d="M1701 810 c-21 -10 -30 -20 -23 -24 7 -4 17 -4 22 -1 6 3 10 2 10 -3
0 -10 48 -35 69 -36 8 -1 15 11 17 27 2 17 -2 27 -10 27 -8 0 -19 7 -26 15
-15 18 -15 18 -59 -5z"/>
<path d="M2223 792 c-7 -4 -13 -28 -15 -52 -2 -35 1 -49 17 -63 20 -18 20 -18
-5 -6 -21 10 -20 7 9 -19 38 -37 53 -43 25 -10 -15 16 -15 20 -3 16 8 -3 26 3
40 13 13 10 18 19 12 19 -7 0 -13 10 -12 23 0 21 1 21 10 2 8 -17 9 -16 5 8
-2 15 1 30 6 33 5 3 1 12 -9 19 -10 7 -21 11 -25 9 -4 -3 -16 -1 -26 5 -10 5
-23 6 -29 3z"/>
<path d="M958 756 c3 -28 1 -36 -12 -36 -9 0 -16 -5 -16 -10 0 -6 6 -10 13 -9
24 3 37 -1 37 -12 0 -7 -9 -9 -21 -6 -17 4 -18 3 -8 -9 9 -11 15 -12 25 -3 8
6 14 8 14 3 0 -4 5 -3 11 3 9 9 17 7 31 -7 11 -10 18 -22 15 -27 -3 -4 8 -8
24 -8 16 0 29 3 29 8 0 4 -5 7 -11 7 -6 0 -28 19 -48 42 -20 23 -48 55 -62 71
l-25 30 4 -37z"/>
<path d="M1328 740 c-2 -41 0 -49 12 -45 8 4 11 3 7 -1 -4 -4 1 -17 10 -28 18
-21 18 -21 -3 -3 -35 29 -38 19 -4 -13 37 -34 42 -36 33 -13 -5 13 -2 15 11
10 9 -4 15 -3 11 2 -3 5 5 17 17 26 15 12 19 19 11 22 -16 6 -17 49 -2 59 16
10 -9 22 -59 28 l-40 6 -4 -50z"/>
<path d="M2348 768 c17 -8 26 -8 34 0 9 9 4 12 -22 11 -33 0 -34 -1 -12 -11z"/>
<path d="M1690 766 c0 -2 7 -7 16 -10 8 -3 12 -2 9 4 -6 10 -25 14 -25 6z"/>
<path d="M909 741 c-24 -20 -24 -20 -2 -14 12 3 28 11 34 19 17 21 -5 17 -32
-5z"/>
<path d="M1742 734 c10 -10 20 -16 22 -13 3 3 -5 11 -17 18 -21 13 -21 12 -5
-5z"/>
<path d="M800 731 c0 -4 7 -17 16 -30 13 -18 18 -20 26 -10 7 11 11 11 15 1 7
-17 23 -5 17 13 -3 7 -12 11 -20 8 -9 -3 -14 0 -12 7 2 7 -7 13 -19 15 -13 1
-23 -1 -23 -4z"/>
<path d="M1288 683 c7 -3 16 -2 19 1 4 3 -2 6 -13 5 -11 0 -14 -3 -6 -6z"/>
<path d="M877 663 c-13 -12 -7 -22 10 -16 11 4 14 3 9 -5 -4 -7 -2 -12 3 -12
6 0 11 4 11 9 0 13 -26 32 -33 24z"/>
<path d="M939 653 c-6 -58 -5 -62 11 -45 8 10 22 26 30 37 14 19 14 19 -6 3
-25 -22 -35 -23 -28 -3 4 8 3 15 0 15 -3 0 -6 -3 -7 -7z"/>
<path d="M3036 642 c-2 -4 11 -17 30 -30 19 -12 34 -18 34 -14 0 12 -58 53
-64 44z"/>
<path d="M1006 624 c-8 -22 -4 -25 11 -9 7 8 9 16 4 19 -5 3 -12 -1 -15 -10z"/>
<path d="M850 616 c0 -11 8 -16 28 -15 15 0 21 3 12 6 -8 3 -21 10 -27 16 -9
7 -13 5 -13 -7z"/>
<path d="M1090 600 c0 -5 5 -10 10 -10 6 0 10 5 10 10 0 6 -4 10 -10 10 -5 0
-10 -4 -10 -10z"/>
<path d="M910 566 c0 -2 7 -6 15 -10 8 -3 15 -1 15 4 0 6 -7 10 -15 10 -8 0
-15 -2 -15 -4z"/>
<path d="M866 380 c8 -30 34 -69 34 -52 0 6 -9 26 -21 44 -17 28 -19 29 -13 8z"/>
</g>
</svg>
